<?xml version="1.0" encoding="UTF-8" standalone="no"?>
<svg
   xmlns:dc="http://purl.org/dc/elements/1.1/"
   xmlns:cc="http://creativecommons.org/ns#"
   xmlns:rdf="http://www.w3.org/1999/02/22-rdf-syntax-ns#"
   xmlns:svg="http://www.w3.org/2000/svg"
   xmlns="http://www.w3.org/2000/svg"
   xmlns:sodipodi="http://sodipodi.sourceforge.net/DTD/sodipodi-0.dtd"
   xmlns:inkscape="http://www.inkscape.org/namespaces/inkscape"
   id="Bold"
   viewBox="0 0 24 24"
   version="1.1"
   sodipodi:docname="user-icon.svg"
   inkscape:version="1.0.1 (1.0.1+r74)">
  <metadata
     id="metadata10">
    <rdf:RDF>
      <cc:Work
         rdf:about="">
        <dc:format>image/svg+xml</dc:format>
        <dc:type
           rdf:resource="http://purl.org/dc/dcmitype/StillImage" />
      </cc:Work>
    </rdf:RDF>
  </metadata>
  <defs
     id="defs8" />
  <sodipodi:namedview
     pagecolor="#ffffff"
     bordercolor="#666666"
     borderopacity="1"
     objecttolerance="10"
     gridtolerance="10"
     guidetolerance="10"
     inkscape:pageopacity="0"
     inkscape:pageshadow="2"
     inkscape:window-width="1920"
     inkscape:window-height="1008"
     id="namedview6"
     showgrid="false"
     inkscape:zoom="16.482921"
     inkscape:cx="3.0573429"
     inkscape:cy="10.150134"
     inkscape:window-x="0"
     inkscape:window-y="0"
     inkscape:window-maximized="1"
     inkscape:current-layer="Bold"
     inkscape:document-rotation="0" />
  <title
     id="title2">94 user</title>
  <path
     d="M11.452,14.018A8.19,8.19,0,0,0,4,22.283V22.5A1.5,1.5,0,0,0,5.5,24h0A1.5,1.5,0,0,0,7,22.5v-.277a5.153,5.153,0,0,1,4.5-5.2A5.006,5.006,0,0,1,17,22v.5A1.5,1.5,0,0,0,18.5,24h0A1.5,1.5,0,0,0,20,22.5V22A8.009,8.009,0,0,0,11.452,14.018Z"
     id="path4"
     style="fill:#a8b7bd;fill-opacity:1;opacity:1" />
  <path
     d="M12,12A6,6,0,1,0,6,6,6.006,6.006,0,0,0,12,12Zm0-9A3,3,0,1,1,9,6,3,3,0,0,1,12,3Z"
     id="path6"
     style="fill:#a8b7bd;fill-opacity:1;opacity:1" />
</svg>
